<svg width="152" height="42" viewBox="0 0 152 42" fill="none" xmlns="http://www.w3.org/2000/svg">
<path fill-rule="evenodd" clip-rule="evenodd" d="M73.3766 8.24791V12.9699C73.3766 13.6347 73.0022 14.0147 72.346 14.0147H66.5725V33.8428C66.5725 34.5085 66.1981 34.8876 65.5419 34.8876H60.8662C60.21 34.8876 59.8355 34.5075 59.8355 33.8428V14.0157H54.0451C53.3889 14.0157 53.0144 13.6357 53.0144 12.9709V8.24791C53.0144 7.58218 53.3889 7.20312 54.0451 7.20312H66.5725H72.346C73.0022 7.20312 73.3766 7.58218 73.3766 8.24791ZM110.924 24.2731C110.806 18.7111 106.295 14.2377 100.745 14.2377C95.1202 14.2377 90.5608 18.8302 90.5608 24.496C90.5608 30.1618 95.1202 34.7543 100.745 34.7543C102.523 34.7543 104.193 34.2943 105.647 33.4886V33.9238C105.647 34.4562 106.104 34.8877 106.667 34.8877H109.909C110.473 34.8877 110.93 34.4562 110.93 33.9238V24.3255C110.93 24.3153 110.928 24.3055 110.927 24.2957C110.925 24.2881 110.924 24.2806 110.924 24.2731ZM100.745 28.4523C98.5761 28.4523 96.8174 26.6808 96.8174 24.496C96.8174 22.3102 98.5761 20.5397 100.745 20.5397C102.915 20.5397 104.673 22.3102 104.673 24.496C104.673 26.6818 102.914 28.4523 100.745 28.4523ZM86.8117 14.6672H86.8127C87.6542 14.5063 88.1081 15.0387 88.1071 15.8673V21.7703C88.1071 22.5769 87.7658 22.9903 87.1077 22.9903C85.0285 22.9322 83.0126 23.8236 82.3734 26.2008V33.881C82.3734 34.4372 81.9167 34.8877 81.3532 34.8877H76.6387C76.0752 34.8877 75.6185 34.4363 75.6185 33.881V15.1834C75.6185 14.6272 76.0752 14.1768 76.6387 14.1768H81.3532C81.9167 14.1768 82.3734 14.6272 82.3734 15.1834V18.0883C83.1554 16.1558 84.7817 14.9968 86.8117 14.6672ZM141.688 14.1091C135.993 14.1091 131.376 18.7587 131.376 24.496C131.376 30.2323 135.992 34.8829 141.688 34.8829C147.384 34.8829 152 30.2323 152 24.496C152 18.7597 147.383 14.1091 141.688 14.1091ZM141.687 28.5018C139.491 28.5018 137.71 26.7084 137.71 24.496C137.71 22.2836 139.491 20.4902 141.687 20.4902C143.883 20.4902 145.664 22.2836 145.664 24.496C145.665 26.7084 143.883 28.5018 141.687 28.5018ZM127.924 14.1749C128.476 14.1749 128.923 14.6349 128.923 15.2025H128.921V19.9522C128.921 20.5198 128.474 20.9798 127.923 20.9798H124.504V33.882C124.504 34.4382 124.047 34.8887 123.484 34.8887H118.769C118.206 34.8887 117.749 34.4373 117.749 33.882V20.9798H114.34C113.788 20.9798 113.341 20.5198 113.341 19.9522V15.2035C113.341 14.6359 113.788 14.1749 114.34 14.1749H117.749V10.4415C117.749 9.88528 118.206 9.43479 118.769 9.43479H123.484C124.048 9.43479 124.505 9.88528 124.505 10.4415V14.1749H127.924Z" fill="#FB5C00"/>
<path d="M40.7905 0H0.905826C0.403745 0.0114288 0 0.424772 0 0.933355V41.0666C0 41.5819 0.415092 42 0.926628 42H40.7697C41.2813 42 41.6963 41.5819 41.6963 41.0666V0.933355C41.6963 0.424772 41.2926 0.0114288 40.7905 0ZM19.1178 34.1674C19.1178 34.5951 18.767 34.9408 18.334 34.9408H14.7116C14.2786 34.9408 13.9278 34.5941 13.9278 34.1674V28.7435C13.9278 28.3159 14.2786 27.9702 14.7116 27.9702H18.334C18.767 27.9702 19.1178 28.3168 19.1178 28.7435V34.1674ZM27.7686 34.1674C27.7686 34.5951 27.4178 34.9408 26.9847 34.9408H23.3624C22.9293 34.9408 22.5785 34.5941 22.5785 34.1674V28.7435C22.5785 28.3159 22.9293 27.9702 23.3624 27.9702H26.9847C27.4178 27.9702 27.7686 28.3168 27.7686 28.7435V34.1674ZM27.7686 23.6282C27.7686 24.1015 27.4272 24.4853 27.0074 24.4853H14.6889C14.2682 24.4853 13.9278 24.1015 13.9278 23.6282V7.91637C13.9278 7.44303 14.2682 7.05921 14.6889 7.05921H27.0074C27.4272 7.05921 27.7686 7.44303 27.7686 7.91637V23.6282Z" fill="url(#paint0_linear)"/>
<defs>
<linearGradient id="paint0_linear" x1="-6.19654" y1="42" x2="50.0734" y2="6.61588" gradientUnits="userSpaceOnUse">
<stop stop-color="#E90000"/>
<stop offset="0.5" stop-color="#FB5C00"/>
<stop offset="1" stop-color="#FF8800"/>
</linearGradient>
</defs>
</svg>
