<svg width="120" height="120" viewBox="0 0 120 120" fill="none" xmlns="http://www.w3.org/2000/svg">
<line x1="101.094" y1="98.4587" x2="99.8942" y2="104.459" stroke="#F4B266" stroke-width="0.6"/>
<line x1="97.8651" y1="101.107" x2="103.265" y2="102.307" stroke="#F4B266" stroke-width="0.6"/>
<line x1="3.29417" y1="73.8586" x2="2.09417" y2="79.8586" stroke="#F4B266" stroke-width="0.6"/>
<line x1="0.0650791" y1="76.5069" x2="5.46508" y2="77.7069" stroke="#F4B266" stroke-width="0.6"/>
<circle cx="45.9001" cy="4.5" r="3.6" stroke="#F4B266" stroke-width="1.8"/>
<circle cx="3.89995" cy="33.9002" r="2.1" stroke="#F4B266" stroke-width="1.2"/>
<circle cx="117.3" cy="83.7" r="2.1" stroke="#F4B266" stroke-width="1.2"/>
<circle cx="96.3" cy="117.3" r="1.2" stroke="#F4B266" stroke-width="0.6"/>
<circle cx="8.69995" cy="114.3" r="3.6" stroke="#F4B266" stroke-width="1.8"/>
<rect x="39.4004" y="9" width="14.8411" height="30.2537" rx="7.42056" transform="rotate(60 39.4004 9)" fill="#F9D9B3"/>
<rect x="112.639" y="51.4907" width="22.2" height="96.1159" rx="11.1" transform="rotate(60 112.639 51.4907)" fill="#F9D9B3"/>
<rect x="86.8943" y="2.3999" width="22.2" height="100.555" rx="11.1" transform="rotate(60 86.8943 2.3999)" fill="#F9D9B3"/>
<rect x="107.894" y="20.3999" width="22.2" height="121.121" rx="11.1" transform="rotate(60 107.894 20.3999)" fill="#F9D9B3"/>
<circle cx="60.9001" cy="61.4999" r="41.1" fill="#F4B266"/>
<circle cx="60.9" cy="61.5001" r="36.9" fill="#FB5C00"/>
<line x1="110.694" y1="0.0588348" x2="109.014" y2="8.45884" stroke="#F4B266" stroke-width="0.6"/>
<line x1="106.265" y1="3.90734" x2="113.825" y2="5.58734" stroke="#F4B266" stroke-width="0.6"/>
<path d="M28.2085 92.8003L25.6633 99.6411L27.7393 100.413L30.2845 93.5726L28.2085 92.8003Z" fill="#706F6F"/>
<path d="M30.134 100.341L27.7448 100.413L30.2833 93.5706L32.6365 93.5902L30.134 100.341Z" fill="#575756"/>
<path d="M23.9037 98.0296L25.6701 99.6414L28.2104 92.8021L26.4112 91.2799L23.9037 98.0296Z" fill="#878787"/>
<path d="M75.3664 30.4448C75.3664 30.4448 90.5858 21.6675 94.923 21.3766C99.7501 21.0473 105.601 20.3733 113.434 20.9456L116.635 21.1574C116.635 21.1574 117.827 22.1584 117.722 24.7075C117.633 26.8308 115.774 28.0821 115.774 28.0821C115.774 28.0821 102.334 26.5657 95.4054 28.344C89.468 29.8622 78.8062 36.9475 78.8062 36.9475L75.3664 30.4448Z" fill="#9D9D9C"/>
<path d="M71.7107 31.3601C72.2593 31.8501 72.7072 32.6188 73.2428 33.5116C74.1096 34.9432 75.6091 37.5271 75.9987 39.7692L78.8163 36.9501C78.8163 36.9501 79.0622 34.3537 75.3685 30.4482L71.7107 31.3601Z" fill="#706F6F"/>
<path d="M79.1348 28.3437C79.1348 28.3437 78.8618 27.6005 79.5784 27.1516C80.2901 26.7016 80.767 27.2674 81.2337 28.1999C81.7054 29.1334 84.3291 34.0692 83.2607 34.417C82.8238 34.5587 82.8093 33.9248 82.6991 33.6179C82.2914 32.4891 80.3578 27.3314 79.7499 28.0111L79.1348 28.3437Z" fill="#575756"/>
<path d="M83.7362 25.9078C83.7362 25.9078 83.4632 25.1646 84.1779 24.7126C84.8945 24.2637 85.3665 24.8284 85.8382 25.762C86.3068 26.6975 88.9305 31.6333 87.8651 31.979C87.4283 32.1208 87.4138 31.4869 87.3016 31.177C86.8959 30.0512 85.0204 24.8907 84.4136 25.5653L83.7362 25.9078Z" fill="#575756"/>
<path d="M88.8446 23.4399C88.8446 23.4399 88.5717 22.6967 89.2863 22.2447C90.0029 21.7958 90.4749 22.3605 90.9446 23.291C91.4133 24.2265 94.037 29.1623 92.9685 29.5101C92.5347 29.6498 92.5172 29.0179 92.405 28.708C91.9974 27.5792 90.1635 22.4435 89.5556 23.1232L88.8446 23.4399Z" fill="#575756"/>
<path d="M94.179 21.4742C94.179 21.4742 94.0805 20.4268 94.9033 20.2316C95.7968 20.0127 95.8702 20.5103 96.2799 21.3334C96.7466 22.2659 99.1405 27.7214 98.0751 28.0672C97.6363 28.2058 97.6256 27.5781 97.5116 27.2651C97.1039 26.1363 95.5276 20.699 94.9247 21.3797L94.179 21.4742Z" fill="#575756"/>
<path d="M34.1969 93.9667C34.1969 93.9667 28.5815 92.9472 25.5463 89.959L25.0074 94.0372C25.0074 94.0372 26.3899 96.2499 31.7 97.0999L34.1969 93.9667Z" fill="#9D9D9C"/>
<path d="M52.3026 93.7595L51.5877 76.3213C51.5877 76.3213 51.4343 68.3851 56.9043 67.7868C62.3713 67.1905 63.1888 67.6718 63.1888 67.6718L65.0424 71.1529L56.9099 72.2076C56.9099 72.2076 52.9882 72.169 54.1906 83.877C55.4093 95.7247 54.8479 93.1464 54.8479 93.1464C54.8479 93.1464 54.264 94.6896 52.3026 93.7595Z" fill="black"/>
<path d="M38.637 86.0601L36.3391 91.3384C40.742 92.9904 49.8188 96.336 54.1187 97.4236C55.7314 97.8345 57.0452 97.1458 58.0581 96.1134C59.8024 94.3396 60.6627 91.5438 60.6627 91.5438L69.4038 67.7773C68.9005 67.9829 68.3579 67.9992 67.7847 67.7863C66.127 67.164 64.046 66.3018 61.8642 65.4697C64.9777 68.3522 61.6085 79.2789 57.7737 89.0196C57.4644 89.8044 57.0651 90.428 56.5864 90.9137C52.6423 94.9365 43.519 89.4899 38.637 86.0601Z" fill="#6C6C6C"/>
<path d="M26.9507 84.2003L25.046 88.5031C25.046 88.5031 25.0507 88.5172 25.0632 88.5435L26.9507 84.2003Z" fill="url(#paint0_radial)"/>
<path d="M48.2915 37.3937C41.7796 44.029 34.6171 53.8491 36.0222 56.1374C37.2032 58.0544 37.4204 59.3819 37.3446 60.2234C38.8901 59.1724 48.3745 63.3982 47.6812 64.9983L47.5856 65.2179C47.7859 64.9743 47.994 64.7429 48.2068 64.5256C48.6385 64.087 49.0911 63.7081 49.571 63.4189C51.8286 62.0462 57.0056 63.6885 61.7314 65.4903C63.9132 66.3225 65.9941 67.1847 67.6518 67.807C68.225 68.0198 68.7677 68.0035 69.2709 67.798C69.6449 67.645 70.0048 67.3895 70.3374 67.0442C73.6818 63.6402 74.965 51.8029 73.1769 50.1235C71.3712 48.4167 72.6449 45.5029 74.7249 43.3819C74.8497 43.255 74.9765 43.1312 75.1052 43.0105C75.1317 42.985 75.1613 42.9575 75.1879 42.9319C75.9481 42.1551 76.0748 41.0239 75.8588 39.7856C75.4711 37.5465 73.9696 34.9596 73.1028 33.528C72.5672 32.6353 72.1193 31.8665 71.5707 31.3765C70.7345 30.6242 69.6629 30.5237 67.6912 31.6324C64.4311 33.4694 61.416 35.63 57.6241 31.4228C56.4609 30.1247 52.5148 33.0898 48.2915 37.3937Z" fill="#F4A03D"/>
<path d="M59.9153 83.2749L59.6299 74.3126C59.6299 74.3126 59.5409 72.9846 60.3939 72.9374C61.2419 72.889 61.1917 72.2866 59.8595 71.5765C58.5224 70.8654 58.9133 68.6908 60.2472 68.5038C61.966 68.2682 62.962 69.5059 62.9667 71.7965C62.9764 74.0882 59.9153 83.2749 59.9153 83.2749Z" fill="#706F6F"/>
<path d="M59.9153 83.2753L59.8547 74.3967C59.8547 74.3967 59.7737 73.1751 60.5555 73.1304C61.3392 73.0888 61.4938 71.9141 60.0616 71.4436C58.739 71.0104 59.1042 68.8695 60.3345 68.7014C61.9156 68.4851 62.8443 69.6242 62.8366 71.7342C62.8343 74.5309 59.9153 83.2753 59.9153 83.2753Z" fill="#9D9D9C"/>
<path d="M34.3875 91.6794C34.1511 91.9203 33.7765 92.0051 33.4465 91.8642C33.0192 91.6783 32.8225 91.1823 33.0065 90.7518L44.2036 64.8557C44.2467 64.7553 44.3075 64.6693 44.3781 64.5986C44.6175 64.3557 44.9859 64.2748 45.319 64.4137C45.7494 64.5977 45.945 65.0988 45.7591 65.5261L34.562 91.4222C34.5189 91.5226 34.458 91.6086 34.3875 91.6794Z" fill="url(#paint1_linear)"/>
<path d="M31.4231 90.1852C31.1837 90.428 30.8121 90.5109 30.4802 90.367C30.0498 90.183 29.8542 89.6819 30.0371 89.2565L41.2372 63.3585C41.2792 63.2631 41.3381 63.174 41.4087 63.1032C41.6481 62.8604 42.0207 62.7725 42.3496 62.9184C42.78 63.1023 42.9756 63.6034 42.7897 64.0308L31.5945 89.9299C31.5495 90.0273 31.4917 90.1113 31.4231 90.1852Z" fill="url(#paint2_linear)"/>
<path d="M28.2 89.1389C27.9606 89.3817 27.589 89.4646 27.259 89.3237C26.8317 89.1378 26.6331 88.6387 26.819 88.2113L38.0161 62.3152C38.0592 62.2148 38.117 62.1308 38.1906 62.058C38.43 61.8152 38.8015 61.7323 39.1315 61.8732C39.5619 62.0571 39.7555 62.5552 39.5746 62.9836L28.3714 88.8836C28.3283 88.984 28.2705 89.0681 28.2 89.1389Z" fill="url(#paint3_linear)"/>
<path d="M37.3988 60.274C37.359 60.3123 37.331 60.3558 37.3089 60.4085L26.9474 84.2021L25.0581 88.5422L24.7125 89.3373C24.0015 90.9702 33.8713 95.3228 35.1265 94.0456C35.1645 94.0042 35.1974 93.9618 35.2164 93.911L36.3371 91.335L38.635 86.0566L47.7173 65.2019L47.8129 64.9822C48.5092 63.3801 39.0238 59.1594 37.4763 60.2073C37.4509 60.2279 37.4223 60.2504 37.3988 60.274Z" fill="#E5E5E5"/>
<path d="M60.3063 71.2826C60.7392 71.645 61.4012 71.574 61.7821 71.1164C62.162 70.6638 62.1181 69.9973 61.6852 69.6349C61.2504 69.2694 60.5884 69.3405 60.2054 69.795C59.8264 70.2556 59.8703 70.9221 60.3063 71.2826Z" fill="#575756"/>
<path d="M60.4059 71.1633C60.7797 71.4734 61.3453 71.4125 61.6668 71.0229C61.9932 70.6344 61.9564 70.0663 61.5856 69.7542C61.2149 69.4421 60.6463 69.505 60.3218 69.8966C59.9984 70.2831 60.0322 70.8531 60.4059 71.1633Z" fill="#878787"/>
<path d="M61.5317 71.0065L61.6272 70.8942L60.439 69.8993L60.3485 70.0127L61.5317 71.0065Z" fill="#9D9D9C"/>
<path d="M61.4482 69.786L60.408 71.0264L60.5187 71.1192L61.559 69.8789L61.4482 69.786Z" fill="#9D9D9C"/>
<path d="M38.1885 62.0552C38.1179 62.126 38.059 62.2151 38.014 62.3124L26.8169 88.2085C26.6329 88.6389 26.8266 89.1369 27.257 89.3209C27.5889 89.4648 27.9585 89.3789 28.1979 89.1361C28.2685 89.0653 28.3293 88.9793 28.3724 88.8789L39.5725 62.9808C39.7565 62.5504 39.5598 62.0543 39.1294 61.8704C38.7994 61.7295 38.4248 61.8143 38.1885 62.0552Z" fill="#CCCCCC"/>
<path d="M41.4085 63.1032C41.3379 63.174 41.2771 63.26 41.237 63.3584L30.0369 89.2565C29.851 89.6838 30.0496 90.183 30.48 90.3669C30.812 90.5108 31.1835 90.428 31.4229 90.1851C31.4965 90.1124 31.5523 90.0253 31.5974 89.928L42.7945 64.0318C42.9804 63.6045 42.7848 63.1034 42.3544 62.9194C42.0205 62.7725 41.6479 62.8603 41.4085 63.1032Z" fill="#CCCCCC"/>
<path d="M44.3812 64.5964C44.3076 64.6691 44.2517 64.7562 44.2067 64.8536L33.0096 90.7497C32.8256 91.1801 33.0223 91.6762 33.4496 91.8621C33.7816 92.006 34.1562 91.9212 34.3906 91.6772C34.4611 91.6064 34.52 91.5174 34.5651 91.4201L45.7652 65.522C45.9511 65.0946 45.7555 64.5936 45.3251 64.4096C44.9901 64.2676 44.6206 64.3535 44.3812 64.5964Z" fill="#CCCCCC"/>
<path d="M39.3185 90.5724C39.7513 90.9348 40.4133 90.8637 40.7963 90.4092C41.1772 89.9516 41.1322 89.2901 40.6974 88.9247C40.2625 88.5592 39.6005 88.6303 39.2196 89.0878C38.8336 89.5443 38.8806 90.2088 39.3185 90.5724Z" fill="#575756"/>
<path d="M39.4161 90.4503C39.7898 90.7605 40.3535 90.6965 40.6788 90.313C41.0034 89.9214 40.9684 89.3564 40.5977 89.0443C40.227 88.7322 39.6584 88.7951 39.3339 89.1867C39.0054 89.5721 39.0473 90.1413 39.4161 90.4503Z" fill="#878787"/>
<path d="M40.5408 90.298L40.6373 90.1807L39.4511 89.1888L39.3556 89.3012L40.5408 90.298Z" fill="#9D9D9C"/>
<path d="M40.4599 89.075L39.4214 90.3169L39.5323 90.4096L40.5708 89.1677L40.4599 89.075Z" fill="#9D9D9C"/>
<path d="M24.0108 97.8296L30.1539 100.178L29.9732 115.355L23.2881 114.813L24.0108 97.8296Z" fill="#404040"/>
<defs>
<radialGradient id="paint0_radial" cx="0" cy="0" r="1" gradientUnits="userSpaceOnUse" gradientTransform="translate(25.9903 86.3849) rotate(-50.0711) scale(1.69191)">
<stop stop-color="#E30613"/>
<stop offset="0.1557" stop-color="#DD0814"/>
<stop offset="0.3787" stop-color="#CD0E15"/>
<stop offset="0.6422" stop-color="#B41216"/>
<stop offset="0.9345" stop-color="#921314"/>
<stop offset="1" stop-color="#891313"/>
</radialGradient>
<linearGradient id="paint1_linear" x1="38.5827" y1="77.7887" x2="40.1994" y2="78.4926" gradientUnits="userSpaceOnUse">
<stop/>
<stop offset="0.5152" stop-color="#3D3D3C"/>
<stop offset="1"/>
</linearGradient>
<linearGradient id="paint2_linear" x1="35.6141" y1="76.2942" x2="37.232" y2="76.9985" gradientUnits="userSpaceOnUse">
<stop/>
<stop offset="0.5152" stop-color="#3D3D3C"/>
<stop offset="1"/>
</linearGradient>
<linearGradient id="paint3_linear" x1="32.3916" y1="75.2495" x2="34.0094" y2="75.9539" gradientUnits="userSpaceOnUse">
<stop/>
<stop offset="0.5152" stop-color="#3D3D3C"/>
<stop offset="1"/>
</linearGradient>
</defs>
</svg>
